<?xml version="1.0" encoding="iso-8859-1"?>
<!-- Generator: Adobe Illustrator 19.0.0, SVG Export Plug-In . SVG Version: 6.00 Build 0)  -->
<svg version="1.1" id="Capa_1" xmlns="http://www.w3.org/2000/svg" xmlns:xlink="http://www.w3.org/1999/xlink" x="0px" y="0px"
	 viewBox="0 0 297 297" style="enable-background:new 0 0 297 297;" xml:space="preserve">
<g>
	<path d="M252.07,167.87c-4.949-29.482-26.585-35.193-35.98-36.267c-6.673-8.979-16.33-13.892-27.432-13.892
		c-2.664,0-5.165,0.28-7.412,0.697c-6.587-7.587-15.832-11.686-26.139-11.686c-0.209,0-0.906,0.002-0.906,0.005v-9.013
		c15-9.416,24.883-25.934,24.883-44.716c0-29.225-23.635-53-52.859-53S73.066,23.775,73.066,53c0,18.65,10.135,35.069,24.135,44.518
		v43.873l-0.429-1.012c-5.388-8.765-13.937-13.786-23.688-13.787c-10.507-0.001-20.581,5.932-25.753,15.112
		c-4.941,8.77-4.662,18.985,0.701,28.089l62.342,119.392c2.486,4.759,7.382,7.815,12.751,7.815h87.757
		c7.578,0,13.879-6.025,14.343-13.59l2.04-33.263C249.032,216.644,256.227,192.64,252.07,167.87z M85.136,53
		c0-22.607,18.508-41,41.115-41s40.776,18.393,40.776,41c0,11.592-4.826,22.066-12.826,29.531V69.753
		c0-3.05-0.842-8.673-0.842-8.673c0.761-2.562,1.259-5.271,1.259-8.08c0-15.649-12.643-28.335-28.293-28.335
		c-15.648,0-28.313,12.686-28.313,28.335c0,2.568,0.364,5.053,1.005,7.419c-0.017,0.052-0.199,0.101-0.216,0.152
		c-0.909,2.859-1.599,5.939-1.599,9.182v12.484C90.201,74.793,85.136,64.438,85.136,53z M215.832,245.648
		c-0.228,0.345-0.364,0.747-0.39,1.16l-2.196,35.866c-0.076,1.25-1.112,2.325-2.365,2.325h-87.757c-0.883,0-1.692-0.591-2.1-1.373
		L58.539,163.986c-7.93-13.086,3.246-25.37,14.658-25.369c5.049,0,10.146,2.388,13.653,8.176l7.994,12.275
		c1.653,2.54,3.943,3.674,6.438,3.674c4.107,0,7.918-3.088,7.918-8.077V69.753c0-11.035,8.224-16.552,16.5-16.552
		c8.276,0,16.5,5.517,16.5,16.552v48.273c0,1.346,1.381,2.376,2.637,2.376c0.236,0,0.618-0.037,0.86-0.114
		c2.311-0.744,5.794-1.564,9.619-1.564c6.569,0,14.385,2.422,19.857,11.809c0.462,0.792,1.311,1.262,2.181,1.262
		c0.278,0,0.57-0.049,0.845-0.15c2.201-0.81,6.048-1.932,10.454-1.932c6.133,0,13.357,2.176,18.744,10.4
		c1.285,1.962,3.461,3.149,5.801,3.282c7.438,0.422,23.267,4.01,27.036,26.462C243.853,191.414,237.617,212.653,215.832,245.648z"/>
</g>
<g>
</g>
<g>
</g>
<g>
</g>
<g>
</g>
<g>
</g>
<g>
</g>
<g>
</g>
<g>
</g>
<g>
</g>
<g>
</g>
<g>
</g>
<g>
</g>
<g>
</g>
<g>
</g>
<g>
</g>
</svg>
