<?xml version="1.0" encoding="iso-8859-1"?>
<!-- Generator: Adobe Illustrator 19.0.0, SVG Export Plug-In . SVG Version: 6.00 Build 0)  -->
<svg version="1.1" id="Capa_1" xmlns="http://www.w3.org/2000/svg" xmlns:xlink="http://www.w3.org/1999/xlink" x="0px" y="0px"
	 viewBox="0 0 285.328 285.328" style="enable-background:new 0 0 285.328 285.328;" xml:space="preserve">
<g>
	<path d="M230.71,155.764c-2.799-16.547-11.149-25.21-17.662-29.563c-6.352-4.246-12.953-5.882-18.102-6.433
		c-6.64-8.881-16.195-13.73-27.209-13.73c-2.417-0.001-4.878,0.231-7.351,0.69c-5.867-6.705-13.708-10.661-22.569-11.403
		c12.83-9.682,21.14-25.049,21.14-42.324c0-29.225-23.775-53-53-53s-53,23.775-53,53c0,18.704,9.748,35.163,24.421,44.599
		l0.017,13.992l0.041,33.745c-7.59,4.057-12.837,10.48-15.269,18.749c-3.746,12.739-0.76,29.147,9.13,50.16
		c6.509,13.827,14.322,25.924,18.062,31.44l1.658,22.07c0.74,9.854,9.061,17.572,18.942,17.572l78.646-0.097
		c9.489-0.012,17.576-7.115,18.812-16.523l3.054-23.263C229.043,216.331,235.851,186.165,230.71,155.764z M77.33,58.413L77.36,82.34
		C69.716,74.889,64.957,64.492,64.957,53c0-22.607,18.393-41,41-41c22.607,0,41,18.393,41,41c0,11.683-4.919,22.23-12.785,29.706
		l-0.029-24.361c-0.011-8.464-3.266-16.01-9.166-21.25c-5.172-4.593-12.005-7.123-19.238-7.123c-7.751,0-15.192,2.999-20.414,8.228
		C80.085,43.445,77.321,50.436,77.33,58.413z M199.797,239.861c-0.565,0.873-0.939,1.863-1.075,2.895l-3.202,24.389
		c-0.456,3.479-3.419,6.249-6.928,6.254l-78.623,0.265c-0.003,0-0.006,0-0.009,0c-3.66,0-6.702-2.989-6.976-6.64l-1.76-23.493
		c-0.093-1.235-0.509-2.46-1.211-3.48c-7.197-10.457-47.38-71.494-14.839-85.098c2.59-1.082,4.268-3.631,4.265-6.438
		c-0.021-16.613-0.086-71.755-0.109-90.112c-0.014-10.948,8.197-16.429,16.408-16.429c8.195,0,16.391,5.458,16.404,16.385
		l0.05,42.287c0.005,3.916,3.194,6.986,6.974,6.986c0.362,0,0.729-0.028,1.1-0.087c1.39-0.219,2.9-0.36,4.48-0.36
		c5.907,0,12.798,1.978,18.078,9.293c1.312,1.816,3.41,2.811,5.589,2.811c0.611,0,1.23-0.079,1.839-0.239
		c2.07-0.548,4.661-1.014,7.484-1.013c6.169,0,13.447,2.225,18.814,10.681c1.076,1.695,2.904,2.752,4.911,2.824
		c7.09,0.256,23.55,3.362,27.416,26.223C222.461,178.954,220.811,207.381,199.797,239.861z"/>
</g>
<g>
</g>
<g>
</g>
<g>
</g>
<g>
</g>
<g>
</g>
<g>
</g>
<g>
</g>
<g>
</g>
<g>
</g>
<g>
</g>
<g>
</g>
<g>
</g>
<g>
</g>
<g>
</g>
<g>
</g>
</svg>
